<?xml version="1.0" standalone="no"?>
<!DOCTYPE svg PUBLIC "-//W3C//DTD SVG 20010904//EN"
 "http://www.w3.org/TR/2001/REC-SVG-20010904/DTD/svg10.dtd">
<svg version="1.0" xmlns="http://www.w3.org/2000/svg"
 width="700.000000pt" height="700.000000pt" viewBox="0 0 700.000000 700.000000"
 preserveAspectRatio="xMidYMid meet">
<metadata>
Created by potrace 1.11, written by Peter Selinger 2001-2013
</metadata>
<g transform="translate(0.000000,700.000000) scale(0.100000,-0.100000)"
fill="#000000" stroke="none">
<path d="M4180 5993 c-77 -6 -241 -33 -325 -54 -115 -28 -275 -81 -275 -90 0
-4 15 -19 33 -31 261 -189 465 -373 617 -558 92 -111 75 -103 255 -115 175
-12 367 -66 540 -152 400 -200 682 -570 775 -1015 37 -177 40 -316 40 -1647 0
-837 4 -1312 11 -1340 27 -118 114 -228 224 -282 129 -63 294 -47 417 40 65
47 117 120 150 212 l23 64 0 1380 c0 1270 -1 1392 -18 1525 -21 171 -46 288
-88 425 -159 512 -461 936 -875 1227 -429 302 -973 451 -1504 411z"/>
<path d="M1995 5978 c-302 -34 -632 -145 -875 -295 -190 -118 -394 -290 -542
-459 -324 -369 -500 -756 -560 -1234 -19 -151 -18 -2896 1 -2985 30 -137 105
-236 223 -294 54 -27 83 -34 151 -38 192 -12 334 80 409 265 l23 57 0 1405 c0
1318 2 1411 19 1510 98 559 471 998 998 1175 153 51 268 69 443 68 295 0 557
-81 805 -248 334 -225 540 -518 621 -883 22 -95 22 -116 28 -1097 4 -550 3
-1029 -1 -1064 -23 -180 -182 -324 -384 -346 -191 -21 -376 117 -429 320 -22
85 -22 1863 0 2025 35 259 79 386 204 584 33 54 61 104 61 111 0 19 -101 108
-187 166 -137 93 -326 174 -485 209 -75 17 -78 15 -167 -159 -122 -238 -191
-441 -243 -711 -21 -112 -22 -137 -25 -1075 -4 -978 0 -1164 33 -1324 50 -242
160 -448 339 -627 238 -240 531 -364 860 -364 498 0 963 302 1157 753 50 115
85 251 99 384 15 147 6 2021 -10 2143 -58 425 -218 818 -471 1155 -95 127
-307 339 -430 431 -327 244 -712 398 -1115 444 -107 12 -437 11 -550 -2z"/>
</g>
</svg>
